<!-- <svg width="100" height="100" xmlns="http://www.w3.org/2000/svg">
  <!-- Heart shape, symbolizing "at the heart of our expertise" -->
  <path fill="#FFC0CB" d="M50 30C37.5 30 25 42.5 25 55s12.5 25 25 25 25-12.5 25-25-12.5-25-25-25zm0 45c-12.5 0-25-7.5-25-20s7.5-20 12.5-20 12.5 7.5 12.5 20-7.5 20-12.5 20z"/>
  
  <!-- Circle, representing comprehensive design service -->
  <circle cx="50" cy="55" r="20" fill="#6495ED"/>
  
  <!-- Lines, symbolizing various design aspects -->
  <line x1="50" y1="75" x2="75" y2="90" stroke="#333" stroke-width="2"/>
  <line x1="50" y1="75" x2="25" y2="90" stroke="#333" stroke-width="2"/>
  <line x1="50" y1="75" x2="50" y2="90" stroke="#333" stroke-width="2"/>
</svg> -->




<svg width="100" height="100" xmlns="http://www.w3.org/2000/svg">
  <!-- Compass, symbolizing comprehensive design service -->
  <path fill="#3498DB" d="M50 10 L75 50 L50 90 L25 50 Z"/>
  
  <!-- Heart shape, representing "at the heart of our expertise" -->
  <path fill="#E74C3C" d="M50 40 C30 40 20 60 40 80 C60 60 70 40 50 40 Z"/>
  
  <!-- Lines, representing various design aspects -->
  <line x1="50" y1="60" x2="80" y2="80" stroke="#333" stroke-width="2"/>
  <line x1="50" y1="60" x2="20" y2="80" stroke="#333" stroke-width="2"/>
  <line x1="50" y1="60" x2="50" y2="80" stroke="#333" stroke-width="2"/>
  
  <!-- Circle, symbolizing cohesive branding materials -->
  <circle cx="50" cy="80" r="10" fill="#F1C40F"/>
  
  <!-- Web page icon, representing web design -->
  <rect x="35" y="70" width="30" height="20" fill="#2ECC71"/>
</svg>