<?xml version="1.0" standalone="no"?>
<!DOCTYPE svg PUBLIC "-//W3C//DTD SVG 20010904//EN"
 "http://www.w3.org/TR/2001/REC-SVG-20010904/DTD/svg10.dtd">
<svg version="1.0" xmlns="http://www.w3.org/2000/svg"
 width="12" height="20" viewBox="0 0 1280.000000 1280.000000"
 preserveAspectRatio="xMidYMid meet">

<g transform="translate(0.000000,1280.000000) scale(0.100000,-0.100000)"
fill="#9926f0" stroke="none">
<path d="M0 6400 l0 -6400 6400 0 6400 0 0 6400 0 6400 -6400 0 -6400 0 0
-6400z m6433 3006 c12 -7 148 -79 302 -158 154 -80 348 -181 430 -223 83 -43
202 -105 265 -138 63 -32 156 -80 205 -106 50 -26 156 -78 238 -116 81 -37
147 -71 147 -75 0 -3 -15 -14 -32 -23 -31 -15 -96 -51 -215 -118 -29 -16 -57
-29 -63 -29 -12 0 -299 141 -530 261 -96 49 -276 142 -400 206 -124 64 -261
138 -306 164 l-81 48 -189 -33 c-340 -60 -641 -157 -819 -265 -37 -23 -70 -40
-72 -37 -9 9 128 108 282 204 304 189 771 452 803 452 7 0 23 -6 35 -14z
m-1527 -835 c33 -22 81 -59 107 -83 l48 -43 -1 -1575 c0 -867 -2 -1589 -5
-1605 l-6 -30 393 -202 c536 -275 915 -463 933 -463 17 0 1334 656 1352 673 9
9 13 152 15 590 2 317 1 577 -1 577 -2 0 -27 -17 -55 -38 -47 -34 -168 -114
-337 -221 -106 -67 -98 -41 -101 -336 l-3 -260 -30 -18 c-16 -10 -86 -50 -155
-89 -69 -38 -140 -79 -159 -91 l-34 -21 6 878 c4 483 3 876 -1 874 -5 -1 -71
-70 -148 -153 -222 -240 -337 -356 -348 -353 -11 3 -248 253 -396 417 l-75 84
3 -872 c2 -479 0 -871 -4 -871 -5 0 -74 36 -154 80 -80 44 -163 86 -183 95
-22 9 -39 24 -42 38 -3 12 -4 562 -3 1222 l3 1200 423 -423 422 -423 30 23
c16 13 125 122 242 242 209 215 485 480 567 545 l41 33 -2 -741 c-2 -408 0
-741 4 -741 19 0 428 256 456 286 l34 36 -4 701 -3 701 140 114 c77 63 152
123 168 134 l27 20 -2 -1700 c-3 -1656 -3 -1700 -22 -1721 -11 -12 -26 -21
-34 -21 -9 0 -5 8 12 21 19 15 26 29 24 45 -2 14 -7 24 -13 24 -5 -1 -9 -8 -7
-17 2 -8 -1 -12 -7 -8 -6 3 -11 1 -11 -5 0 -6 -4 -9 -9 -6 -11 7 -48 -21 -38
-30 4 -4 13 -2 19 4 15 15 38 16 38 2 0 -5 -7 -10 -15 -10 -8 0 -15 -9 -15
-19 0 -11 -5 -23 -12 -27 -8 -5 -9 -2 -4 11 5 15 4 16 -8 5 -9 -6 -14 -17 -13
-23 1 -7 -8 -11 -22 -9 -13 2 -21 -1 -17 -6 3 -5 -12 -18 -33 -30 -30 -17 -40
-19 -50 -9 -10 9 -11 9 -6 -3 6 -17 -47 -46 -65 -35 -6 4 -9 1 -8 -5 2 -7
-167 -98 -387 -209 -214 -108 -515 -261 -667 -339 -153 -78 -286 -142 -297
-142 -30 0 -171 67 -876 415 -531 262 -774 388 -792 412 -10 13 -13 386 -13
1784 l0 1768 53 4 c28 2 57 4 63 5 7 1 38 -16 70 -37z m-510 -453 c-90 -127
-216 -362 -282 -528 -33 -83 -38 -90 -52 -76 -9 8 -52 82 -97 163 l-82 148 37
7 c44 8 147 50 210 86 69 39 206 149 236 187 29 38 57 49 30 13z m4133 -198
c44 -64 86 -102 140 -126 65 -29 114 -30 166 -4 22 11 41 20 42 20 23 0 -65
-198 -119 -270 -18 -23 -40 -53 -49 -66 -15 -23 -17 -19 -74 129 -62 165 -128
303 -193 410 -23 37 -42 70 -42 73 0 7 93 -113 129 -166z m-4619 -285 c18 -33
59 -97 91 -142 l59 -82 -19 -73 c-11 -40 -30 -138 -41 -218 -12 -80 -26 -176
-32 -215 -6 -40 -8 -149 -5 -255 5 -153 11 -210 36 -331 67 -320 170 -590 318
-829 46 -74 2 -24 -73 85 -166 237 -282 487 -369 790 -60 210 -86 385 -92 635
-6 229 4 367 44 632 l28 176 11 -56 c7 -31 26 -84 44 -117z m5020 -145 c47
-256 61 -563 35 -745 -24 -162 -29 -180 -48 -179 -12 1 -17 -6 -17 -25 0 -38
-14 -54 -39 -46 -12 4 -21 2 -21 -4 0 -6 5 -11 11 -11 14 0 0 -43 -17 -53 -19
-11 -18 -27 1 -27 16 0 20 -12 8 -23 -3 -4 -12 -2 -19 4 -10 8 -14 2 -19 -28
-35 -216 -143 -526 -237 -677 -71 -114 -171 -257 -175 -252 -3 2 18 39 45 83
154 246 262 494 316 724 70 303 67 701 -9 1017 -30 126 -31 144 -4 168 36 32
149 186 157 213 7 26 7 26 10 -4 1 -16 11 -77 22 -135z m-113 -1172 c-3 -7 -5
-2 -5 12 0 14 2 19 5 13 2 -7 2 -19 0 -25z m-43 -227 c-9 -23 -18 -40 -21 -38
-2 3 4 23 13 46 9 23 18 40 21 38 2 -3 -4 -23 -13 -46z m-4234 -2328 c12 -16
65 -117 118 -225 54 -108 101 -196 106 -194 5 1 55 93 110 203 56 111 110 211
120 222 15 16 31 21 73 21 l53 0 0 -334 c0 -192 -4 -337 -9 -340 -5 -4 -37 -9
-71 -13 l-62 -6 4 161 c2 89 1 162 -2 162 -3 0 -33 -50 -65 -112 -33 -61 -75
-127 -92 -146 -28 -29 -37 -34 -64 -28 -39 7 -51 23 -141 178 l-73 127 -5
-169 c-3 -93 -8 -171 -10 -172 -3 -2 -35 -2 -72 0 l-68 4 0 338 0 339 58 4
c31 2 60 4 64 5 4 1 16 -10 28 -25z m949 21 c30 -6 31 -8 31 -64 0 -31 3 -85
6 -119 l7 -61 128 0 128 0 3 123 3 122 70 0 70 0 3 -270 c2 -148 0 -303 -3
-342 l-7 -73 -69 0 -68 0 -3 133 -3 132 -127 3 c-150 3 -137 17 -141 -153 l-2
-110 -67 -3 -68 -3 0 340 c0 262 3 340 13 344 18 8 60 8 96 1z m2773 -27 c122
-60 198 -176 198 -303 0 -39 -7 -93 -15 -120 -18 -58 -81 -148 -99 -141 -7 3
-19 1 -27 -5 -11 -8 -9 -8 6 -4 17 5 16 3 -5 -15 -48 -41 -123 -72 -188 -77
-131 -10 -271 78 -337 212 -39 79 -41 193 -5 274 29 68 129 162 202 191 78 31
193 26 270 -12z m-1882 -214 l5 -233 32 -31 c64 -65 172 -44 216 41 16 31 18
60 16 245 l-3 210 73 3 72 3 -3 -253 c-3 -237 -4 -256 -25 -293 -47 -88 -135
-146 -233 -153 -58 -4 -76 -1 -126 22 -76 35 -106 64 -140 139 -29 62 -29 63
-32 300 l-4 238 74 -3 73 -3 5 -232z m838 -23 c1 -140 5 -261 7 -267 3 -10 40
-13 140 -13 l135 0 0 -70 0 -70 -210 0 -210 0 0 123 c0 67 -3 220 -6 340 l-6
218 73 -3 74 -3 3 -255z m-6154 -1939 c3 -5 -2 -8 -12 -7 -11 0 -18 -7 -20
-21 -3 -18 2 -23 17 -23 22 0 28 15 11 23 -6 3 -5 4 2 3 20 -4 15 -30 -6 -34
-27 -6 -48 25 -35 49 10 20 34 25 43 10z m71 -31 c-9 -41 -17 -33 -9 9 4 17 9
30 11 27 3 -2 2 -19 -2 -36z m-171 -5 c20 -31 20 -36 0 -28 -9 3 -20 0 -25 -8
-6 -10 -9 -2 -9 24 0 43 11 47 34 12z m251 -2 c7 -28 7 -28 16 -5 11 29 17 28
11 -3 -6 -34 -22 -42 -29 -16 -6 25 -23 28 -23 4 0 -9 -2 -14 -5 -11 -8 8 5
58 15 58 4 0 11 -12 15 -27z m-334 -44 c9 -18 9 -19 -10 -7 -12 7 -21 19 -21
26 0 17 17 7 31 -19z m449 20 c12 -8 10 -9 -7 -4 -21 6 -33 -8 -15 -18 4 -2 1
-2 -5 -1 -16 4 -17 -8 -1 -24 7 -7 8 -12 2 -12 -24 0 -33 23 -17 46 17 27 22
28 43 13z m-477 -41 c-2 -5 -12 -3 -20 4 -14 11 -15 10 -8 -12 7 -24 7 -24 -9
-5 -25 33 -21 45 13 32 17 -6 27 -15 24 -19z m567 -37 c0 -28 -20 -42 -44 -29
-31 16 -31 16 -6 43 18 19 26 22 37 14 7 -6 13 -19 13 -28z m-630 -24 c0 -6
-9 -2 -20 8 -11 10 -20 23 -20 28 0 6 9 2 20 -8 11 -10 20 -23 20 -28z m-100
-77 c14 -11 21 -20 15 -20 -5 0 -21 9 -35 20 -14 11 -20 20 -15 20 6 0 21 -9
35 -20z m465 -5 c14 -13 25 -36 25 -50 0 -33 -41 -75 -73 -75 -34 0 -66 29
-73 67 -5 26 -1 37 19 57 33 33 71 33 102 1z m340 5 c-18 -19 -17 -20 5 -20
23 0 23 0 4 -21 -18 -20 -18 -20 11 -14 23 5 26 4 15 -4 -18 -13 -50 -14 -50
-3 0 4 6 14 13 21 10 10 8 12 -8 11 -36 -4 -39 0 -15 25 28 29 51 34 25 5z
m-859 -77 c13 -17 13 -17 14 0 0 9 7 17 16 17 14 0 14 -1 0 -16 -9 -8 -14 -20
-11 -25 11 -17 -1 -9 -25 16 -13 14 -20 25 -15 25 4 0 14 -8 21 -17z m689 -45
c44 -194 46 -190 -75 -150 -46 16 -86 35 -88 42 -6 17 116 129 140 130 10 0
20 -10 23 -22z m225 2 c-8 -5 -24 -9 -35 -9 l-20 0 20 9 c11 5 27 9 35 9 13 1
13 0 0 -9z m-517 -103 c26 -53 33 -60 88 -84 74 -32 74 -48 -4 -85 -51 -25
-60 -34 -85 -85 -15 -33 -34 -58 -42 -58 -8 0 -28 27 -45 59 -26 52 -37 63
-85 85 -30 15 -55 33 -55 41 0 8 26 27 58 43 50 24 61 34 79 75 39 90 51 91
91 9z m549 33 c3 -20 1 -27 -6 -21 -6 5 -22 11 -36 14 -25 4 -25 4 3 6 17 0
27 7 27 16 0 26 8 16 12 -15z m-954 -17 c-10 -2 -18 -11 -18 -18 0 -7 8 -16
18 -18 9 -3 -1 -5 -23 -5 -22 0 -32 2 -22 5 20 5 23 29 5 36 -7 3 3 5 22 5 19
0 27 -2 18 -5z m950 -71 c-21 -4 -24 -28 -5 -35 6 -3 -4 -5 -23 -5 -19 0 -27
2 -17 5 21 5 23 33 2 33 -8 0 -15 4 -15 8 0 4 17 6 38 3 20 -3 29 -6 20 -9z
m-960 -50 c-15 -2 -29 -11 -31 -20 -3 -10 -5 -7 -6 9 -1 23 2 25 32 20 31 -5
31 -6 5 -9z m39 -68 c-3 -3 -12 -4 -19 -1 -8 3 -5 6 6 6 11 1 17 -2 13 -5z
m888 -62 c-3 -3 -12 3 -21 14 -13 16 -15 17 -10 2 4 -13 0 -18 -15 -18 -19 0
-19 1 -5 16 9 8 13 21 9 27 -3 7 6 1 20 -12 15 -14 25 -27 22 -29z m-865 0 c0
-4 -5 -13 -11 -19 -7 -7 -6 -12 5 -16 9 -4 16 -2 16 4 0 6 5 7 11 4 7 -5 2
-16 -12 -31 -27 -29 -50 -33 -24 -4 18 19 17 20 -5 20 -23 0 -23 0 -4 21 l19
22 -30 -7 c-22 -5 -26 -4 -15 4 18 12 50 13 50 2z m804 -57 c11 -8 16 -15 10
-15 -5 0 -18 7 -28 15 -11 8 -16 15 -10 15 5 0 18 -7 28 -15z m-732 -101 c-4
-21 -1 -25 14 -22 12 2 19 12 18 26 0 17 2 19 13 10 11 -9 10 -15 -8 -34 -17
-18 -25 -21 -36 -13 -14 12 -18 41 -6 52 10 11 11 9 5 -19z m658 -17 c0 -6 -9
-2 -20 8 -11 10 -20 23 -20 28 0 6 9 2 20 -8 11 -10 20 -23 20 -28z m-50 -44
c0 -8 -7 -8 -29 0 -17 6 -27 15 -24 19 2 5 12 3 20 -4 14 -11 15 -10 8 12 -7
24 -7 24 9 5 8 -11 16 -25 16 -32z m-482 24 c8 -9 6 -19 -7 -36 -15 -20 -21
-22 -37 -12 -18 11 -17 11 4 6 20 -6 32 8 15 18 -5 2 -2 2 5 1 15 -4 16 8 0
24 -8 8 -8 12 -1 12 6 0 15 -6 21 -13z m432 -45 c0 -17 -17 -7 -31 19 -9 18
-9 19 10 7 12 -7 21 -19 21 -26z m-360 -8 c0 -8 5 -14 10 -14 6 0 10 8 10 17
0 9 2 14 5 11 8 -8 -5 -58 -15 -58 -4 0 -11 12 -15 28 -7 27 -7 27 -16 5 -13
-34 -20 -28 -8 7 11 30 29 32 29 4z m275 -42 c-6 -6 -44 36 -45 50 0 3 9 4 20
1 12 -3 21 0 22 8 0 8 3 -1 5 -19 3 -19 2 -37 -2 -40z m-89 30 c1 -7 0 -8 -3
-2 -6 12 -43 13 -43 1 0 -5 6 -12 13 -14 9 -4 9 -6 0 -6 -16 -1 -26 16 -18 30
9 14 48 7 51 -9z m-109 -34 c-3 -8 -6 -5 -6 6 -1 11 2 17 5 13 3 -3 4 -12 1
-19z m108 -7 c-8 -14 -32 -14 -40 -1 -3 5 0 7 8 4 8 -3 18 0 22 6 4 6 9 9 12
6 3 -2 2 -9 -2 -15z"/>
<path d="M8751 7314 c0 -11 3 -14 6 -6 3 7 2 16 -1 19 -3 4 -6 -2 -5 -13z"/>
<path d="M8782 7190 c0 -14 2 -19 5 -12 2 6 2 18 0 25 -3 6 -5 1 -5 -13z"/>
<path d="M8802 7085 c0 -16 2 -22 5 -12 2 9 2 23 0 30 -3 6 -5 -1 -5 -18z"/>
<path d="M8916 6611 c-4 -7 -5 -15 -2 -18 9 -9 19 4 14 18 -4 11 -6 11 -12 0z"/>
<path d="M8065 3638 c-51 -11 -109 -58 -135 -109 -22 -43 -27 -137 -9 -172 47
-91 143 -132 242 -103 144 42 186 228 75 332 -56 53 -104 67 -173 52z"/>
<path d="M8322 3470 c0 -14 2 -19 5 -12 2 6 2 18 0 25 -3 6 -5 1 -5 -13z"/>
<path d="M8429 3383 c-5 -16 -12 -34 -14 -41 -3 -8 -10 -10 -17 -6 -10 6 -10
5 -1 -7 10 -12 9 -21 -3 -44 -8 -15 -12 -30 -10 -32 7 -7 28 37 47 99 18 59
17 80 -2 31z"/>
<path d="M8320 3372 c0 -5 7 -15 15 -22 8 -7 15 -9 15 -6 0 4 -7 14 -15 22 -8
9 -15 11 -15 6z"/>
<path d="M8300 3351 c0 -5 5 -13 10 -16 6 -3 10 -2 10 4 0 5 -4 13 -10 16 -5
3 -10 2 -10 -4z"/>
<path d="M8281 3308 c-11 -18 -11 -20 4 -14 13 5 16 2 11 -11 -4 -13 0 -11 14
5 19 22 20 23 46 6 25 -17 26 -17 22 2 -2 14 -12 19 -38 19 -19 0 -37 3 -40 7
-3 4 -12 -2 -19 -14z"/>
<path d="M8335 3280 c-3 -5 1 -10 10 -10 9 0 13 5 10 10 -3 6 -8 10 -10 10 -2
0 -7 -4 -10 -10z"/>
<path d="M8305 3249 c-11 -16 -1 -19 13 -3 7 8 8 14 3 14 -5 0 -13 -5 -16 -11z"/>
<path d="M8340 3249 c0 -5 5 -7 11 -3 8 4 9 -1 5 -17 -6 -20 -5 -21 4 -6 11
18 6 37 -11 37 -5 0 -9 -5 -9 -11z"/>
<path d="M8200 3239 c0 -5 5 -7 10 -4 6 3 10 8 10 11 0 2 -4 4 -10 4 -5 0 -10
-5 -10 -11z"/>
<path d="M8305 3210 c-3 -5 -2 -10 4 -10 5 0 13 5 16 10 3 6 2 10 -4 10 -5 0
-13 -4 -16 -10z"/>
<path d="M8286 3163 c-6 -14 -5 -15 5 -6 7 7 10 15 7 18 -3 3 -9 -2 -12 -12z"/>
<path d="M940 1540 c0 -5 5 -10 11 -10 5 0 7 5 4 10 -3 6 -8 10 -11 10 -2 0
-4 -4 -4 -10z"/>
<path d="M1377 1453 c-14 -13 -6 -33 13 -33 13 0 20 7 20 20 0 19 -20 27 -33
13z"/>
<path d="M1205 620 c3 -5 8 -10 11 -10 2 0 4 5 4 10 0 6 -5 10 -11 10 -5 0 -7
-4 -4 -10z"/>
</g>
</svg>
