<svg id="_0178_coding_2" xmlns="http://www.w3.org/2000/svg" viewBox="0 0 500 500" data-imageid="coding-3-12" imageName="Coding 3" class="illustrations_image" style="width: 151px;"><defs><style>.cls-1_coding-3-12{fill:#fff;}.cls-2_coding-3-12{fill:#f4a28c;}.cls-3_coding-3-12{fill:#a5a5a5;}.cls-4_coding-3-12{opacity:.51;}.cls-4_coding-3-12,.cls-5_coding-3-12,.cls-6_coding-3-12{fill:none;}.cls-7_coding-3-12{fill:#e6e6e6;}.cls-5_coding-3-12{opacity:.08;}.cls-8_coding-3-12{fill:#24285b;}.cls-9_coding-3-12{fill:#000001;}.cls-10_coding-3-12{fill:#ffd200;}.cls-6_coding-3-12{opacity:.1;}.cls-11_coding-3-12{fill:#68e1fd;}</style></defs><g id="laptop_coding-3-12"><rect class="cls-7_coding-3-12" x="152.17" y="78.23" width="223.75" height="155.8"/><rect class="cls-3_coding-3-12" x="152.17" y="234.03" width="223.75" height="152.98"/><g class="cls-4_coding-3-12"><rect class="cls-1_coding-3-12" x="176.6" y="258.63" width="177.01" height="72.65"/></g><rect class="cls-1_coding-3-12" x="228.75" y="340.28" width="70.33" height="33.69"/><rect class="cls-8_coding-3-12" x="166.77" y="92.71" width="194.32" height="122.77"/><rect class="cls-11_coding-3-12 targetColor" x="223.56" y="177.98" width="62.42" height="6.98" style="fill: rgb(153, 38, 240);"/><rect class="cls-10_coding-3-12" x="241.46" y="158.53" width="55.8" height="6.98"/><rect class="cls-11_coding-3-12 targetColor" x="241.46" y="194.87" width="74.38" height="6.98" style="fill: rgb(153, 38, 240);"/><rect class="cls-1_coding-3-12" x="200.4" y="194.87" width="27.97" height="6.98"/><rect class="cls-1_coding-3-12" x="182.5" y="177.98" width="27.97" height="6.98"/><circle class="cls-1_coding-3-12" cx="179.49" cy="104.49" r="3.29"/><g class="cls-5_coding-3-12"><path class="cls-9_coding-3-12" d="m223.56,272.54s23.22-4.84,17.9,17.56c-5.32,22.4,12.43,19.38,9.01,36.94-3.43,17.56-26.91,59.96-26.91,59.96h-44.07l22.42-82.6,21.65-31.86Z"/></g><circle class="cls-11_coding-3-12 targetColor" cx="189.28" cy="104.49" r="3.29" style="fill: rgb(153, 38, 240);"/><g class="cls-5_coding-3-12"><path class="cls-9_coding-3-12" d="m330,280.9s21.77-10.03,31.09,9.05c9.33,19.07,14.84,24,14.84,24v60.02l-47.74-35.88,1.82-57.19Z"/></g><circle class="cls-10_coding-3-12" cx="198.51" cy="104.49" r="3.29"/><rect class="cls-1_coding-3-12" x="182.5" y="124.86" width="27.97" height="6.98"/><rect class="cls-1_coding-3-12" x="200.4" y="142.33" width="27.97" height="6.98"/><rect class="cls-10_coding-3-12" x="241.46" y="142.33" width="55.8" height="6.98"/><rect class="cls-1_coding-3-12" x="200.4" y="158.53" width="27.97" height="6.98"/><rect class="cls-11_coding-3-12 targetColor" x="221.65" y="124.86" width="57.63" height="6.98" style="fill: rgb(153, 38, 240);"/><rect class="cls-11_coding-3-12 targetColor" x="291.34" y="124.86" width="40.92" height="6.98" style="fill: rgb(153, 38, 240);"/><path class="cls-2_coding-3-12" d="m328.18,351.71s-29.52-7.27-27.25-24.98,21.35-7.72,21.35-7.72c0,0-5-24.03-12.26-30.86s8.17-18.57,19.98-7.25c11.81,11.32,14.08,2.25,23.62,14.05,9.54,11.8,9.54,45.33,9.54,45.33l-34.97,11.43Z"/><polygon class="cls-11_coding-3-12 targetColor" points="328.18 351.71 353.61 452.54 409.02 430.74 363.15 340.28 328.18 351.71" style="fill: rgb(153, 38, 240);"/><path class="cls-2_coding-3-12" d="m205.7,342.17s29.52-7.27,27.25-24.98-21.35-7.72-21.35-7.72c0,0,5-24.03,12.26-30.86,7.27-6.83-8.17-18.57-19.98-7.25-11.81,11.32-14.08,2.25-23.62,14.05s-9.54,45.33-9.54,45.33l34.97,11.43Z"/><polygon class="cls-11_coding-3-12 targetColor" points="205.7 342.17 180.27 442.99 124.86 421.19 170.73 330.73 205.7 342.17" style="fill: rgb(153, 38, 240);"/></g><g id="panel2_coding-3-12"><rect class="cls-8_coding-3-12" x="15.72" y="114.41" width="120.8" height="202.14"/><polygon class="cls-1_coding-3-12" points="97.79 249.86 96.79 249.86 96.79 176.78 52.96 176.78 52.96 175.78 97.79 175.78 97.79 249.86"/><rect class="cls-10_coding-3-12" x="33.89" y="132.04" width="58.59" height="9.37"/><rect class="cls-11_coding-3-12 targetColor" x="37.52" y="166.7" width="30.88" height="19.17" style="fill: rgb(153, 38, 240);"/><rect class="cls-1_coding-3-12" x="52.96" y="249.36" width="43.83" height="1"/><rect class="cls-11_coding-3-12 targetColor" x="81.85" y="204.39" width="30.88" height="19.17" style="fill: rgb(153, 38, 240);"/><rect class="cls-11_coding-3-12 targetColor" x="37.52" y="240.27" width="30.88" height="19.17" style="fill: rgb(153, 38, 240);"/><rect class="cls-11_coding-3-12 targetColor" x="81.35" y="240.27" width="30.88" height="19.17" style="fill: rgb(153, 38, 240);"/><g class="cls-6_coding-3-12"><rect class="cls-1_coding-3-12" x="37.52" y="285.09" width="74.71" height="13.62"/></g></g><g id="panel_1_coding-3-12"><rect class="cls-7_coding-3-12" x="393.37" y="138.52" width="93.33" height="53.98"/><circle class="cls-8_coding-3-12" cx="409.31" cy="155.69" r="5.42"/><circle class="cls-11_coding-3-12 targetColor" cx="409.31" cy="174.57" r="5.42" style="fill: rgb(153, 38, 240);"/><rect class="cls-1_coding-3-12" x="421.85" y="151.99" width="48.91" height="6.6"/><rect class="cls-1_coding-3-12" x="421.85" y="171.07" width="48.91" height="6.6"/></g><g id="code_coding-3-12"><rect class="cls-10_coding-3-12" x="339.83" y="41.78" width="106.86" height="73.46"/><path class="cls-1_coding-3-12" d="m378.9,92.94c-.54,0-1.08-.17-1.53-.53l-16.02-12.66c-.59-.47-.94-1.18-.94-1.93,0-.75.34-1.47.92-1.94l16.02-12.89c1.06-.86,2.62-.69,3.48.38.86,1.06.69,2.62-.38,3.48l-13.6,10.95,13.59,10.74c1.07.85,1.25,2.4.41,3.47-.49.62-1.21.94-1.94.94Z"/><path class="cls-1_coding-3-12" d="m407.9,92.94c-.73,0-1.45-.32-1.94-.94-.85-1.07-.67-2.63.41-3.47l13.59-10.74-13.6-10.95c-1.06-.86-1.23-2.41-.38-3.48.86-1.06,2.41-1.23,3.48-.38l16.02,12.89c.59.47.93,1.19.92,1.94,0,.75-.35,1.46-.94,1.93l-16.02,12.66c-.45.36-.99.53-1.53.53Z"/><path class="cls-1_coding-3-12" d="m386.68,92.94c-.34,0-.69-.07-1.03-.22-1.24-.57-1.79-2.03-1.22-3.28l11.67-25.55c.57-1.24,2.03-1.79,3.28-1.22,1.24.57,1.79,2.03,1.22,3.28l-11.67,25.55c-.42.91-1.31,1.45-2.25,1.45Z"/></g></svg>