<svg id="_0230_designer" xmlns="http://www.w3.org/2000/svg" viewBox="0 0 500 500" data-imageid="designer-59" imageName="Designer" class="illustrations_image" style="width: 151px;"><defs><style>.cls-1_designer-59{opacity:.45;}.cls-1_designer-59,.cls-2_designer-59,.cls-3_designer-59,.cls-4_designer-59,.cls-5_designer-59,.cls-6_designer-59,.cls-7_designer-59,.cls-8_designer-59,.cls-9_designer-59,.cls-10_designer-59{fill:none;}.cls-11_designer-59{fill:#fff;}.cls-12_designer-59{fill:#f4a28c;}.cls-13_designer-59{fill:#a5a5a5;}.cls-2_designer-59{opacity:.66;}.cls-3_designer-59{opacity:.58;}.cls-4_designer-59{opacity:.51;}.cls-5_designer-59{opacity:.44;}.cls-14_designer-59{fill:#e6e6e6;}.cls-6_designer-59{opacity:.03;}.cls-7_designer-59{opacity:.09;}.cls-8_designer-59{opacity:.73;}.cls-9_designer-59{opacity:.31;}.cls-15_designer-59{fill:#24285b;}.cls-16_designer-59{fill:#000001;}.cls-10_designer-59{opacity:.15;}.cls-17_designer-59{fill:#ffd200;}.cls-18_designer-59{fill:#68e1fd;}</style></defs><g id="sd_designer-59" class="cls-6_designer-59"><ellipse class="cls-16_designer-59" cx="250" cy="448.26" rx="239.51" ry="21.99"/></g><g id="table_designer-59"><rect class="cls-14_designer-59" x="38.01" y="270.17" width="410.18" height="176.43"/><rect class="cls-13_designer-59" x="63.33" y="295.55" width="278.75" height="151.05"/><g class="cls-7_designer-59"><rect class="cls-16_designer-59" x="259.4" y="398.96" width="82.69" height="47.63"/></g></g><g id="tab_designer-59"><polygon class="cls-15_designer-59" points="380.44 216.09 404.91 270.17 358.33 270.17 380.44 216.09"/><g class="cls-5_designer-59"><polygon class="cls-11_designer-59" points="380.44 216.09 404.91 270.17 358.33 270.17 380.44 216.09"/></g><path class="cls-15_designer-59" d="m211.98,256.68l30.63-67.67c1.5-3.32,4.81-5.46,8.46-5.46h133.79c5.72,0,9.61,5.79,7.44,11.08l-28.89,70.66c-1.2,2.95-4.07,4.87-7.26,4.87h-135.48c-6.94,0-11.56-7.17-8.7-13.49Z"/><path class="cls-11_designer-59" d="m229.97,252.83l25.64-56.65c.92-2.04,2.96-3.35,5.2-3.35h110.55c2.4,0,4.03,2.43,3.12,4.65l-24.48,59.87c-.88,2.15-2.97,3.55-5.28,3.55h-109.56c-4.15,0-6.91-4.28-5.2-8.06Z"/><polygon class="cls-14_designer-59" points="338.1 199.43 317.87 248.33 343.72 248.33 361.14 199.43 338.1 199.43"/><g class="cls-4_designer-59"><polygon class="cls-14_designer-59" points="264.89 199.43 259.83 210.32 327.7 210.32 331.71 199.43 264.89 199.43"/></g></g><g id="panel_designer-59"><g class="cls-9_designer-59"><rect class="cls-14_designer-59" x="361.14" y="92.85" width="99.11" height="69.39"/></g></g><g id="plant_designer-59"><g class="cls-3_designer-59"><path class="cls-18_designer-59 targetColor" d="m451.24,429.42s-14.24-3.89-17.34-17.15c0,0,22.07-4.46,22.7,18.32l-5.36-1.17Z" style="fill: rgb(153, 38, 240);"/></g><g class="cls-8_designer-59"><path class="cls-18_designer-59 targetColor" d="m452.99,428s-9.95-15.73-1.19-30.44c0,0,16.78,10.66,9.32,30.47l-8.13-.03Z" style="fill: rgb(153, 38, 240);"/></g><path class="cls-18_designer-59 targetColor" d="m455.55,428.02s5.26-16.61,21.15-19.76c0,0,2.98,10.79-10.29,19.81l-10.86-.05Z" style="fill: rgb(153, 38, 240);"/><polygon class="cls-15_designer-59" points="445.22 427.64 448.11 447.39 466.29 447.47 468.97 427.74 445.22 427.64"/></g><g id="person_designer-59"><path class="cls-12_designer-59" d="m201.85,192.33s6.67-16.74,11.24-16.03c4.58.7.94,7.16.94,7.16,0,0,11.38-4.81,15.02-1.41,3.64,3.4-18.56,16.21-18.56,16.21l-8.65-5.93Z"/><polygon class="cls-18_designer-59 targetColor" points="166.21 231.51 199.98 189.43 214.55 199.43 188.59 270.17 155.46 270.31 166.21 231.51" style="fill: rgb(153, 38, 240);"/><g class="cls-7_designer-59"><polygon class="cls-16_designer-59" points="166.21 231.51 199.98 189.43 214.55 199.43 188.59 270.17 155.46 270.31 166.21 231.51"/></g><polygon class="cls-15_designer-59" points="138.62 364.4 130.93 439.85 146.62 439.85 166.21 360.18 151.27 354.28 138.62 364.4"/><rect class="cls-17_designer-59" x="94.39" y="366.93" width="17.42" height="60.7"/><g class="cls-10_designer-59"><rect class="cls-16_designer-59" x="94.39" y="366.93" width="17.42" height="60.7"/></g><path class="cls-15_designer-59" d="m78.18,321.36s.83,20.69,12.43,28.7c7.61,5.25,46.04,8.15,71.58,9.52,12.54.67,21.88,11.84,20.33,24.31l-6.95,55.96h16.02l15.1-66.87c3.89-17.23-5.71-34.64-22.35-40.55l-35.8-12.71-70.34,1.65Z"/><polygon class="cls-12_designer-59" points="146.51 152.14 143.05 174.13 123.33 175.86 134.83 140.61 146.51 152.14"/><path class="cls-12_designer-59" d="m142.25,128.29c6.9-2.82,14.34,2.73,14.03,10.18-.33,8.17-2.38,19.63-11.41,17.82-13.82-2.78-10.8-20.77-10.8-20.77,0,0,2.94-5.09,8.17-7.23Z"/><path class="cls-18_designer-59 targetColor" d="m64.43,251.06c-5.06-29.46,7.57-59.57,32.89-75.47,10.41-6.54,22.94-10.67,37.6-9.32,46.68,4.31,63.83,57.68,39.37,98.36-6.43,10.7-11.81,21.99-16.66,33.48l-9.11,21.6-72.09,1.22-12-69.88Z" style="fill: rgb(153, 38, 240);"/><path class="cls-18_designer-59 targetColor" d="m132.46,439.85l-1.4,6.67c-.73,3.44,1.9,6.68,5.42,6.68h13.73c3.32,0,4.6-4.33,1.8-6.12-3.11-1.99-6.94-4.42-11.4-7.23h-8.15Z" style="fill: rgb(153, 38, 240);"/><path class="cls-18_designer-59 targetColor" d="m178.53,439.85l-1.4,6.67c-.73,3.44,1.9,6.68,5.42,6.68h13.73c3.32,0,4.6-4.33,1.8-6.12-3.11-1.99-6.94-4.42-11.4-7.23h-8.15Z" style="fill: rgb(153, 38, 240);"/><path class="cls-18_designer-59 targetColor" d="m131.04,195.69c1.69-18.59,23.69-27.62,37.89-15.51,6.11,5.21,12.11,12.16,16.48,21.32,13.49,28.24,34.99,46.79,107.49,45.11v17.7s-105.41,22.34-143.34-20.23c-16.17-18.15-19.75-35.01-18.54-48.39Z" style="fill: rgb(153, 38, 240);"/><g class="cls-5_designer-59"><path class="cls-11_designer-59" d="m131.04,195.69c1.69-18.59,23.69-27.62,37.89-15.51,6.11,5.21,12.11,12.16,16.48,21.32,13.49,28.24,34.99,46.79,107.49,45.11v17.7s-105.41,22.34-143.34-20.23c-16.17-18.15-19.75-35.01-18.54-48.39Z"/></g><rect class="cls-17_designer-59" x="306.44" y="230.07" width="3.37" height="41.44" transform="translate(-84.11 187.66) rotate(-30)"/><path class="cls-12_designer-59" d="m292.92,251.42s14.54-9.7,22.13-2.95-22.13,15.84-22.13,15.84v-12.89Z"/><g class="cls-7_designer-59"><path class="cls-16_designer-59" d="m138.6,149.88l-3.68,16.39s-40.11,23.81-42.34,60.59c0,0-6.29,66.29,31.78,92.85l-42.22,1.22-16.35-101.96s12.61-49.42,60.74-52.96l5.04-15.45,7.02-.69Z"/></g><path class="cls-15_designer-59" d="m129.08,140.94s-2.2,7.39,3.6,10.31c5.8,2.92,13.09-10.44,13.09-10.44,0,0,12.87-2.22,18.19-8.95,2.91-3.69-1.03-8.7-5.52-7.3-2.28.71-5.08.5-8.16-2.01-8.18-6.66-26.72-1.91-21.19,18.39Z"/><path class="cls-12_designer-59" d="m146.58,140.98s-.4-4.94-4.83-3c-4.43,1.94-1.28,8.26,1.76,8.09,3.03-.17,3.07-5.09,3.07-5.09Z"/><path class="cls-17_designer-59" d="m61.18,349.7s84.45-15.23,93.72-.47c9.27,14.75,1.05,37.94-34.46,31.62-35.51-6.32-79.08,12.7-59.26-31.14Z"/><path class="cls-17_designer-59" d="m59.58,319.85c-24.71-4.59-39.94-29.37-32.68-53.43,7.2-23.85,21.15-49.24,47.82-47.34,43.74,3.12,70.3,116.63-15.14,100.77Z"/><g class="cls-7_designer-59"><path class="cls-16_designer-59" d="m70.38,219.01s-49.8,57.99-4.58,92.83l-9.33,7.87s-40.56-12.84-29.12-54.76c0,0,13.08-45.2,43.03-45.95Z"/></g><path class="cls-17_designer-59" d="m82.34,372.65c-1.46,0-2.94-.39-4.28-1.2-35.53-21.57-17.04-93.7-14.82-101.85,1.2-4.4,5.74-7,10.14-5.79,4.4,1.2,6.99,5.74,5.79,10.13h0c-4.77,17.56-13.65,70.58,7.46,83.4,3.9,2.37,5.14,7.44,2.77,11.34-1.55,2.56-4.28,3.97-7.06,3.97Z"/><g class="cls-5_designer-59"><path class="cls-11_designer-59" d="m82.34,372.65c-1.46,0-2.94-.39-4.28-1.2-35.53-21.57-17.04-93.7-14.82-101.85,1.2-4.4,5.74-7,10.14-5.79,4.4,1.2,6.99,5.74,5.79,10.13h0c-4.77,17.56-13.65,70.58,7.46,83.4,3.9,2.37,5.14,7.44,2.77,11.34-1.55,2.56-4.28,3.97-7.06,3.97Z"/></g><polygon class="cls-17_designer-59" points="94.39 427.63 63.33 454.89 145.63 454.89 111.81 427.63 94.39 427.63"/></g><g id="screen_designer-59"><g class="cls-2_designer-59"><rect class="cls-14_designer-59" x="189.56" y="29.75" width="139.68" height="97.8"/></g><circle class="cls-14_designer-59" cx="226.41" cy="60.62" r="16.29"/><g class="cls-1_designer-59"><rect class="cls-13_designer-59" x="262.67" y="46.78" width="45.9" height="63.77"/></g><rect class="cls-13_designer-59" x="212.92" y="89.17" width="31.53" height="21.37"/></g></svg>