<svg version="1.1" id="Layer_1" xmlns="http://www.w3.org/2000/svg" xmlns:xlink="http://www.w3.org/1999/xlink" x="0px" y="0px" viewBox="0 0 500 500" style="width: 151px;" xml:space="preserve" data-imageid="data-center-2-35-e738b" imageName="Data Center 2" class="illustrations_image">
<style type="text/css">
	.st0_data-center-2-35-e738b{fill:#ED7C31;}
	.st1_data-center-2-35-e738b{opacity:0.32;fill:url(#SVGID_1_);enable-background:new    ;}
	.st2_data-center-2-35-e738b{opacity:0.32;fill:url(#SVGID_00000047776189013535032530000011632335629997469057_);enable-background:new    ;}
	.st3_data-center-2-35-e738b{opacity:0.32;fill:url(#SVGID_00000127729377831512543290000007190238065972036024_);enable-background:new    ;}
	.st4_data-center-2-35-e738b{fill:#68E1FD;}
	.st5_data-center-2-35-e738b{opacity:0.15;enable-background:new    ;}
	.st6_data-center-2-35-e738b{fill:#594B5A;}
	.st7_data-center-2-35-e738b{fill:#892A54;}
	.st8_data-center-2-35-e738b{fill:#F2F2F2;}
	.st9_data-center-2-35-e738b{fill:#AB7493;}
	.st10_data-center-2-35-e738b{fill:#EF827B;}
	.st11_data-center-2-35-e738b{fill:#FFEDDD;}
</style>
<path id="Base_data-center-2-35-e738b" class="st0_data-center-2-35-e738b" d="M477.3,250.2l-178.8-104c-2.6-1.5-5.8-1.5-8.5,0l-267.3,153c-4,2.3-5.4,7.5-3.1,11.5&#10;&#9;c0.7,1.3,1.8,2.4,3.1,3.1l171,98.7c8.5,4.9,19.1,4.9,27.6,0l256-147.8c4-2.4,5.4-7.5,3-11.6C479.7,252,478.6,250.9,477.3,250.2z"/>
<g id="Shadow_data-center-2-35-e738b">
	
		<linearGradient id="SVGID_1_-data-center-2-35-e738b" gradientUnits="userSpaceOnUse" x1="215.6025" y1="114.4955" x2="195.3025" y2="148.5155" gradientTransform="matrix(1 0 0 -1 0 502)">
		<stop offset="0" style="stop-color:#F2F2F2;stop-opacity:0"/>
		<stop offset="0.99" style="stop-color:#FFA86A"/>
	</linearGradient>
	<path class="st1_data-center-2-35-e738b" d="M161.7,370.4c19.9,11.4,39.5,23.4,58.9,35.6c16-7.8,32.2-16.3,51.5-30.6c-27.9-14.5-75.2-42.8-92.4-53.6&#10;&#9;&#9;l-49.6,29C141.1,356.6,151.4,364.5,161.7,370.4z"/>
	
		<linearGradient id="SVGID_00000082365800222097374410000014313904429625675686_-data-center-2-35-e738b" gradientUnits="userSpaceOnUse" x1="322.0807" y1="137.2404" x2="302.1307" y2="170.6704" gradientTransform="matrix(1 0 0 -1 0 502)">
		<stop offset="0" style="stop-color:#F2F2F2;stop-opacity:0"/>
		<stop offset="0.99" style="stop-color:#FFA86A"/>
	</linearGradient>
	<path style="opacity:0.32;fill:url(#SVGID_00000082365800222097374410000014313904429625675686_);enable-background:new    ;" d="&#10;&#9;&#9;M352.1,329.7c-22.6-13.1-46.4-27.6-57.4-34.5l-48.1,28.5c10.7,5.7,20.8,13.4,30.7,19.2s19.6,11.6,29.3,17.5&#10;&#9;&#9;C327.4,348.9,336.4,343.6,352.1,329.7z"/>
	
		<linearGradient id="SVGID_00000024685946827493072720000013778712598552234425_-data-center-2-35-e738b" gradientUnits="userSpaceOnUse" x1="428.713" y1="169.8618" x2="409.293" y2="202.3918" gradientTransform="matrix(1 0 0 -1 0 502)">
		<stop offset="0" style="stop-color:#F2F2F2;stop-opacity:0"/>
		<stop offset="0.99" style="stop-color:#FFA86A"/>
	</linearGradient>
	<path style="opacity:0.32;fill:url(#SVGID_00000024685946827493072720000013778712598552234425_);enable-background:new    ;" d="&#10;&#9;&#9;M416.4,300c7.6-4.5,20.2-11.2,27.8-15.6c-15.5-9.1-29.6-17.7-37.4-22.5l-47.5,27.7c10.6,5.5,20.5,13.1,30.3,18.7&#10;&#9;&#9;c1.7,1,4.8,2.4,6.4,3.4C404.4,306.4,407.9,305,416.4,300z"/>
</g>
<g id="Lines_data-center-2-35-e738b">
	<polygon points="142.1,315.3 98.7,290.2 278.1,186.9 278.3,187 367.1,238.2 366.6,239 278.1,188 100.7,290.2 142.6,314.5 &#9;"/>
	<polygon points="281.2,283.3 197.3,234.1 197.3,187.4 198.3,187.4 198.3,233.6 281.8,282.5 &#9;"/>
	<circle cx="197.8" cy="232.7" r="4.6"/>
</g>
<g id="Cloud_data-center-2-35-e738b">
	<path class="st4_data-center-2-35-e738b targetColor" d="M277.6,122.4c-1.5-1.9-22-14-22-14v0.1c-4.2-4.7-12-3-22.1,5.8c0,0-0.4-9.7-12-11.2s-14.9,3.7-14.9,3.7&#10;&#9;&#9;s-3.9-18.4-27.2-11.5c-21.1,6.3-18.2,27.5-18.2,27.5s-13.1-3.3-23.6,11.2s-9.7,31.4-9.7,31.4s-22.1,8-24.9,28.1&#10;&#9;&#9;c-0.2,1.7-0.4,3.5-0.4,5.2v0.5c-0.3,3.6,0.5,9.1,1.2,12.9c0.4,2.5,1.9,4.6,4.1,5.9l23.4,13.4c0.7-5.8-0.1-11.7-2.4-17.1l116-67.3&#10;&#9;&#9;c0,0,8.9-7.8,12.6-18.1l8.9-2.3C266.3,126.4,279,124.3,277.6,122.4z" style="fill: rgb(153, 38, 240);"/>
	<path class="st5_data-center-2-35-e738b" d="M277.6,122.4c-1.5-1.9-22-14-22-14v0.1c-4.2-4.7-12-3-22.1,5.8c0,0-0.4-9.7-12-11.2s-14.9,3.7-14.9,3.7&#10;&#9;&#9;s-3.9-18.4-27.2-11.5c-21.1,6.3-18.2,27.5-18.2,27.5s-13.1-3.3-23.6,11.2s-9.7,31.4-9.7,31.4s-22.1,8-24.9,28.1&#10;&#9;&#9;c-0.2,1.7-0.4,3.5-0.4,5.2v0.5c-0.3,3.6,0.5,9.1,1.2,12.9c0.4,2.5,1.9,4.6,4.1,5.9l23.4,13.4c0.7-5.8-0.1-11.7-2.4-17.1l116-67.3&#10;&#9;&#9;c0,0,8.9-7.8,12.6-18.1l8.9-2.3C266.3,126.4,279,124.3,277.6,122.4z"/>
	<path class="st4_data-center-2-35-e738b targetColor" d="M143.9,232.9l123.3-71.6c0,0,15.1-13.2,14.2-28.1s-10.8-17.3-25.5-4.4c0,0-0.3-12.4-11.9-11.2&#10;&#9;&#9;s-16.1,8.8-16.1,8.8s2.3-22.1-21-15.2c-12.2,3.4-21.3,13.7-23.2,26.2c0,0-13.1-3.3-23.6,11.2s-9.7,31.4-9.7,31.4s-22.1,8-24.9,28.1&#10;&#9;&#9;S132.3,237,143.9,232.9z" style="fill: rgb(153, 38, 240);"/>
</g>
<g id="Server_2_data-center-2-35-e738b">
	<polyline class="st6_data-center-2-35-e738b" points="306.2,220.1 288.6,210.8 246.6,235 246.6,326 263.9,336 &#9;"/>
	<path class="st7_data-center-2-35-e738b" d="M263.9,336c1.3-0.1,0-91.6,0-91.6l42.3-24.4v92.2L263.9,336z"/>
	<polygon class="st8_data-center-2-35-e738b" points="264.1,261.1 264.1,261.1 246.5,252.1 246.6,251.9 264.1,260.8 306.1,237.2 306.2,237.4 &#9;"/>
	<polygon class="st8_data-center-2-35-e738b" points="264.1,284.8 264.1,284.7 246.5,275.8 246.6,275.6 264.1,284.5 306.1,260.8 306.2,261.1 &#9;"/>
	<polygon class="st8_data-center-2-35-e738b" points="264.1,306.1 264.1,306 246.5,297.1 246.6,296.9 264.1,305.8 306.1,282.1 306.2,282.4 &#9;"/>
	<polygon class="st8_data-center-2-35-e738b" points="264.1,327.6 264.1,327.5 246.5,318.6 246.6,318.4 264.1,327.3 306.1,303.6 306.2,303.9 &#9;"/>
	<polygon class="st9_data-center-2-35-e738b" points="263.9,244.5 246.6,235 288.6,210.8 306.2,220.1 &#9;"/>
	<ellipse transform="matrix(0.3791 -0.9253 0.9253 0.3791 -60.198 405.22)" class="st8_data-center-2-35-e738b" cx="271.9" cy="247.5" rx="3.1" ry="2.6"/>
	<path class="st8_data-center-2-35-e738b" d="M300.6,231.8L281,242.6l-2.8,1.6c-0.4,0.2,0,0.9,0.4,0.6l19.6-10.8l2.8-1.5c0.2-0.1,0.2-0.3,0.1-0.5&#10;&#9;&#9;C301,231.8,300.8,231.7,300.6,231.8L300.6,231.8z"/>
	
		<ellipse transform="matrix(0.3791 -0.9253 0.9253 0.3791 -79.3479 418.075)" class="st8_data-center-2-35-e738b" cx="271.9" cy="268.2" rx="3.1" ry="2.5"/>
	<path class="st8_data-center-2-35-e738b" d="M300.6,252.5L281,263.3l-2.8,1.5c-0.4,0.2,0,0.9,0.4,0.6l19.7-10.8l2.8-1.5&#10;&#9;&#9;C301.5,252.9,301.1,252.3,300.6,252.5L300.6,252.5z"/>
	
		<ellipse transform="matrix(0.3791 -0.9253 0.9253 0.3791 -100.2769 432.1067)" class="st8_data-center-2-35-e738b" cx="271.9" cy="290.8" rx="3.1" ry="2.5"/>
	<path class="st8_data-center-2-35-e738b" d="M300.6,275.1L281,285.9l-2.8,1.5c-0.4,0.2,0,0.9,0.4,0.6l19.6-10.8l2.8-1.5C301.4,275.5,301,274.9,300.6,275.1&#10;&#9;&#9;z"/>
	
		<ellipse transform="matrix(0.3791 -0.9253 0.9253 0.3791 -119.2638 444.8559)" class="st8_data-center-2-35-e738b" cx="271.9" cy="311.3" rx="3.1" ry="2.5"/>
	<path class="st8_data-center-2-35-e738b" d="M300.6,295.6L281,306.5l-2.8,1.5c-0.4,0.2,0,0.9,0.4,0.6l19.7-10.8l2.8-1.5&#10;&#9;&#9;C301.5,296.1,301.1,295.4,300.6,295.6L300.6,295.6z"/>
</g>
<g id="Server_1_data-center-2-35-e738b">
	<polyline class="st6_data-center-2-35-e738b" points="189.6,246 172.1,236.7 130,261 130,351.9 147.3,362 &#9;"/>
	<path class="st10_data-center-2-35-e738b" d="M147.3,362c1.3-0.1,0-91.6,0-91.6l42.2-24.4v92.2L147.3,362z"/>
	<polygon class="st8_data-center-2-35-e738b" points="147.5,287 147.5,287 129.9,278 130.1,277.8 147.5,286.7 189.5,263.1 189.7,263.3 &#9;"/>
	<polygon class="st8_data-center-2-35-e738b" points="147.5,310.7 147.5,310.6 129.9,301.7 130.1,301.5 147.5,310.4 189.5,286.8 189.7,287 &#9;"/>
	<polygon class="st8_data-center-2-35-e738b" points="147.5,332 147.5,331.9 129.9,323 130.1,322.8 147.5,331.7 189.5,308.1 189.7,308.3 &#9;"/>
	<polygon class="st8_data-center-2-35-e738b" points="147.5,353.5 147.5,353.4 129.9,344.5 130.1,344.3 147.5,353.2 189.5,329.5 189.7,329.8 &#9;"/>
	<polygon class="st11_data-center-2-35-e738b" points="147.3,270.4 130,261 172.1,236.7 189.6,246 &#9;"/>
	
		<ellipse transform="matrix(0.3791 -0.9253 0.9253 0.3791 -156.5485 313.4398)" class="st8_data-center-2-35-e738b" cx="155.3" cy="273.4" rx="3.1" ry="2.5"/>
	<path class="st8_data-center-2-35-e738b" d="M184.1,257.7l-19.7,10.8l-2.8,1.5c-0.4,0.2,0,0.9,0.4,0.6l19.7-10.8l2.8-1.5c0.2-0.1,0.2-0.4,0.1-0.5&#10;&#9;&#9;C184.4,257.7,184.2,257.6,184.1,257.7z"/>
	
		<ellipse transform="matrix(0.3791 -0.9253 0.9253 0.3791 -175.6984 326.2949)" class="st8_data-center-2-35-e738b" cx="155.3" cy="294.1" rx="3.1" ry="2.5"/>
	<path class="st8_data-center-2-35-e738b" d="M184.1,278.4l-19.7,10.8l-2.8,1.5c-0.4,0.2,0,0.9,0.4,0.6l19.7-10.8l2.8-1.5&#10;&#9;&#9;C184.9,278.8,184.4,278.2,184.1,278.4z"/>
	
		<ellipse transform="matrix(0.3791 -0.9253 0.9253 0.3791 -196.6119 340.3297)" class="st8_data-center-2-35-e738b" cx="155.3" cy="316.7" rx="3.1" ry="2.5"/>
	<path class="st8_data-center-2-35-e738b" d="M184.1,301l-19.7,10.8l-2.8,1.5c-0.4,0.2,0,0.9,0.4,0.6l19.7-10.8l2.8-1.5C184.9,301.4,184.4,300.8,184.1,301&#10;&#9;&#9;L184.1,301z"/>
	
		<ellipse transform="matrix(0.3791 -0.9253 0.9253 0.3791 -215.6142 353.0757)" class="st8_data-center-2-35-e738b" cx="155.3" cy="337.2" rx="3.1" ry="2.5"/>
	<path class="st8_data-center-2-35-e738b" d="M184.1,321.5l-19.7,10.8l-2.8,1.5c-0.4,0.2,0,0.9,0.4,0.6l19.7-10.8l2.8-1.5&#10;&#9;&#9;C184.9,322,184.4,321.3,184.1,321.5z"/>
</g>
<g id="Server_3_data-center-2-35-e738b">
	<polyline class="st6_data-center-2-35-e738b" points="411.7,179.6 394.2,170.3 352.1,194.6 352.1,285.5 369.4,295.6 &#9;"/>
	<path class="st10_data-center-2-35-e738b" d="M369.4,295.6c1.3-0.1,0-91.6,0-91.6l42.3-24.4v92.2L369.4,295.6z"/>
	<polygon class="st8_data-center-2-35-e738b" points="369.6,220.6 369.6,220.6 352.1,211.6 352.2,211.4 369.6,220.3 411.6,196.7 411.8,196.9 &#9;"/>
	<polygon class="st8_data-center-2-35-e738b" points="369.6,244.3 369.6,244.2 352.1,235.3 352.2,235.1 369.6,244 411.6,220.4 411.8,220.6 &#9;"/>
	<polygon class="st8_data-center-2-35-e738b" points="369.6,265.6 369.6,265.5 352.1,256.6 352.2,256.4 369.6,265.3 411.6,241.7 411.8,241.9 &#9;"/>
	<polygon class="st8_data-center-2-35-e738b" points="369.6,287.1 369.6,287 352.1,278.1 352.2,277.9 369.6,286.8 411.6,263.2 411.8,263.4 &#9;"/>
	<polygon class="st11_data-center-2-35-e738b" points="369.4,204 352.1,194.6 394.2,170.3 411.7,179.6 &#9;"/>
	<ellipse transform="matrix(0.3791 -0.9253 0.9253 0.3791 42.7738 477.7321)" class="st8_data-center-2-35-e738b" cx="377.4" cy="207" rx="3.1" ry="2.6"/>
	<path class="st8_data-center-2-35-e738b" d="M406.2,191.3l-19.7,10.8l-2.8,1.5c-0.4,0.2,0,0.9,0.4,0.6l19.7-10.8l2.8-1.5c0.2-0.1,0.2-0.4,0.1-0.5&#10;&#9;&#9;C406.5,191.3,406.3,191.3,406.2,191.3z"/>
	
		<ellipse transform="matrix(0.3791 -0.9253 0.9253 0.3791 23.6238 490.5871)" class="st8_data-center-2-35-e738b" cx="377.4" cy="227.7" rx="3.1" ry="2.6"/>
	<path class="st8_data-center-2-35-e738b" d="M406.2,212l-19.7,10.8l-2.8,1.5c-0.4,0.2,0,0.9,0.4,0.6l19.7-10.8l2.8-1.5C407,212.4,406.5,211.8,406.2,212&#10;&#9;&#9;L406.2,212z"/>
	<ellipse transform="matrix(0.3791 -0.9253 0.9253 0.3791 2.7011 504.6281)" class="st8_data-center-2-35-e738b" cx="377.4" cy="250.3" rx="3.1" ry="2.6"/>
	<path class="st8_data-center-2-35-e738b" d="M406.2,234.6l-19.7,10.8l-2.8,1.6c-0.4,0.2,0,0.9,0.4,0.6l19.7-10.8l2.8-1.6&#10;&#9;&#9;C407,235.1,406.5,234.4,406.2,234.6L406.2,234.6z"/>
	<ellipse transform="matrix(0.3791 -0.9253 0.9253 0.3791 -16.292 517.368)" class="st8_data-center-2-35-e738b" cx="377.4" cy="270.8" rx="3.1" ry="2.5"/>
	<path class="st8_data-center-2-35-e738b" d="M406.2,255.1L386.5,266l-2.8,1.5c-0.4,0.2,0,0.9,0.4,0.6l19.7-10.8l2.8-1.5C407,255.6,406.5,254.9,406.2,255.1&#10;&#9;&#9;L406.2,255.1z"/>
</g>
</svg>