<svg id="_0260_bug_fixing" xmlns="http://www.w3.org/2000/svg" viewBox="0 0 500 500" data-imageid="bug-fixing-1-83" imageName="Bug Fixing 1" class="illustrations_image" style="width: 101px;"><defs><style>.cls-1_bug-fixing-1-83{fill:#fff;}.cls-2_bug-fixing-1-83{opacity:.11;}.cls-2_bug-fixing-1-83,.cls-3_bug-fixing-1-83,.cls-4_bug-fixing-1-83,.cls-5_bug-fixing-1-83,.cls-6_bug-fixing-1-83,.cls-7_bug-fixing-1-83{fill:none;}.cls-8_bug-fixing-1-83{fill:#f4a28c;}.cls-9_bug-fixing-1-83{fill:#a5a5a5;}.cls-10_bug-fixing-1-83{fill:#ce8172;}.cls-3_bug-fixing-1-83{opacity:.44;}.cls-11_bug-fixing-1-83{fill:#e6e6e6;}.cls-4_bug-fixing-1-83{opacity:.09;}.cls-5_bug-fixing-1-83{opacity:.32;}.cls-6_bug-fixing-1-83{opacity:.31;}.cls-12_bug-fixing-1-83{fill:#24285b;}.cls-13_bug-fixing-1-83{fill:#000001;}.cls-14_bug-fixing-1-83{fill:#ffd200;}.cls-15_bug-fixing-1-83{fill:#68e1fd;}.cls-7_bug-fixing-1-83{opacity:.38;}</style></defs><g id="screen_bug-fixing-1-83"><rect class="cls-11_bug-fixing-1-83" x="147.3" y="41" width="296.1" height="293.27"/><circle class="cls-14_bug-fixing-1-83" cx="170.61" cy="63.47" r="7.42"/><circle class="cls-15_bug-fixing-1-83 targetColor" cx="191.51" cy="63.47" r="7.42" style="fill: rgb(153, 38, 240);"/><circle class="cls-12_bug-fixing-1-83" cx="211.53" cy="63.47" r="7.42"/><rect class="cls-1_bug-fixing-1-83" x="326.87" y="56.05" width="84.88" height="17.14"/><g class="cls-4_bug-fixing-1-83"><path class="cls-13_bug-fixing-1-83" d="m311.22,123.41s25.05,31.41,7.29,62.91-57.94,26.08-57.94,26.08l-29.98,73.68c-1.6,3.93-6.1,5.78-10,4.13l-7.69-3.26c-2.74-1.16-5.27,2.02-3.52,4.43h0c5.84,8.03,6.59,18.69,1.95,27.47l-8.17,15.43h-55.86v-114.47l55.86,33.69,33.5-65.85s40.41,11.93,55.21-7.31c14.8-19.24,19.36-56.91,19.36-56.91Z"/></g><g class="cls-7_bug-fixing-1-83"><rect class="cls-9_bug-fixing-1-83" x="243.73" y="228.35" width="61.81" height="79.93"/></g></g><g id="loading_bug-fixing-1-83"><rect class="cls-12_bug-fixing-1-83" x="323.49" y="100.92" width="150.99" height="207.37"/><g class="cls-4_bug-fixing-1-83"><rect class="cls-13_bug-fixing-1-83" x="351.61" y="163.87" width="95.23" height="60.2"/></g><g class="cls-5_bug-fixing-1-83"><rect class="cls-11_bug-fixing-1-83" x="380.23" y="122.58" width="53.29" height="13.83"/></g><g class="cls-2_bug-fixing-1-83"><rect class="cls-1_bug-fixing-1-83" x="383.38" y="278.68" width="31.69" height="8.22"/></g><circle class="cls-14_bug-fixing-1-83" cx="351.61" cy="129.49" r="14.8"/><rect class="cls-1_bug-fixing-1-83" x="347.66" y="242.76" width="105.6" height="21.44"/><rect class="cls-15_bug-fixing-1-83 targetColor" x="347.66" y="242.76" width="79.94" height="21.44" style="fill: rgb(153, 38, 240);"/><path class="cls-1_bug-fixing-1-83" d="m366.39,186.55c0-1.23.32-2.35.96-3.36.64-1.01,1.61-1.82,2.9-2.43,1.3-.6,2.89-.91,4.78-.91s3.48.3,4.76.91c1.29.6,2.25,1.41,2.89,2.43s.96,2.13.96,3.36-.29,2.3-.87,3.21c-.58.91-1.36,1.63-2.34,2.15,1.23.59,2.17,1.41,2.83,2.44.66,1.04.99,2.25.99,3.64,0,1.62-.41,3.01-1.23,4.18-.82,1.17-1.93,2.07-3.33,2.68-1.4.61-2.96.92-4.66.92s-3.26-.31-4.66-.92c-1.4-.62-2.51-1.51-3.33-2.68-.82-1.17-1.23-2.57-1.23-4.18,0-1.41.33-2.64.99-3.67s1.59-1.84,2.8-2.41c-2.14-1.14-3.21-2.93-3.21-5.36Zm6.05,8.76c-.66.58-.99,1.38-.99,2.41,0,.96.32,1.74.97,2.36.65.61,1.52.92,2.61.92s1.95-.31,2.58-.92.94-1.4.94-2.36-.32-1.8-.97-2.39c-.65-.59-1.5-.89-2.54-.89s-1.94.29-2.6.87Zm4.73-10.04c-.54-.51-1.25-.77-2.13-.77s-1.6.26-2.13.79c-.54.52-.8,1.25-.8,2.19s.27,1.59.82,2.1,1.25.77,2.12.77,1.57-.26,2.12-.79c.55-.52.82-1.23.82-2.12,0-.93-.27-1.66-.8-2.17Z"/><path class="cls-1_bug-fixing-1-83" d="m389.9,183.24c1.51-2.25,3.96-3.38,7.33-3.38s5.81,1.13,7.33,3.38,2.27,5.34,2.27,9.26-.76,7.07-2.27,9.33-3.96,3.38-7.33,3.38-5.81-1.13-7.33-3.38c-1.51-2.25-2.27-5.36-2.27-9.33s.76-7,2.27-9.26Zm10.43,3.94c-.5-1.24-1.54-1.86-3.11-1.86s-2.61.62-3.11,1.86c-.5,1.24-.75,3.01-.75,5.31,0,1.55.09,2.83.27,3.84.18,1.01.55,1.83,1.11,2.46.56.63,1.38.94,2.48.94s1.92-.31,2.48-.94c.56-.63.93-1.45,1.11-2.46.18-1.01.27-2.29.27-3.84,0-2.3-.25-4.07-.75-5.31Z"/><path class="cls-1_bug-fixing-1-83" d="m411.01,182.39c1.06-1,2.43-1.5,4.12-1.5s3.05.5,4.1,1.5c1.05,1,1.57,2.43,1.57,4.27s-.52,3.27-1.57,4.27c-1.05,1-2.41,1.5-4.1,1.5s-3.06-.5-4.12-1.5c-1.06-1-1.59-2.42-1.59-4.27s.53-3.27,1.59-4.27Zm2.44,4.27c0,1.55.55,2.32,1.64,2.32.52,0,.93-.19,1.23-.58.29-.39.44-.97.44-1.74,0-1.57-.56-2.36-1.67-2.36s-1.64.79-1.64,2.36Zm19.16-5.4l-13.15,24.05h-5.64l13.15-24.05h5.64Zm-5.36,14.38c1.05-1,2.41-1.5,4.1-1.5s3.05.5,4.1,1.5c1.05,1,1.57,2.43,1.57,4.27s-.52,3.27-1.57,4.27c-1.05,1-2.41,1.5-4.1,1.5s-3.05-.5-4.1-1.5c-1.05-1-1.57-2.43-1.57-4.27s.52-3.27,1.57-4.27Zm2.85,2.49c-.29.39-.43.98-.43,1.78,0,1.55.55,2.32,1.64,2.32.52,0,.93-.19,1.23-.58.3-.39.44-.97.44-1.74s-.15-1.36-.44-1.76c-.3-.4-.71-.6-1.23-.6s-.93.19-1.21.58Z"/></g><g id="person_bug-fixing-1-83"><path class="cls-9_bug-fixing-1-83" d="m255.22,136l-.4-2.26,13.13-2.31,1.03-8.59,2.28.27-1.13,9.44c-.06.5-.44.91-.94.99l-13.97,2.45Z"/><path class="cls-9_bug-fixing-1-83" d="m268.98,161.58l-1.03-8.59-13.13-2.31.4-2.26,13.97,2.45c.5.09.88.49.94.99l1.13,9.44-2.28.27Z"/><rect class="cls-9_bug-fixing-1-83" x="259.03" y="141.08" width="19.44" height="2.3"/><path class="cls-15_bug-fixing-1-83 targetColor" d="m125.63,400.95s-3.47,7.63,1.22,13.02c4.68,5.4,1.16,11.69-4.69,8.52-5.85-3.17-11.95-20.59-11.95-20.59l9-9.63,6.42,8.67Z" style="fill: rgb(153, 38, 240);"/><g class="cls-4_bug-fixing-1-83"><path class="cls-13_bug-fixing-1-83" d="m125.63,400.95s-3.47,7.63,1.22,13.02c4.68,5.4,1.16,11.69-4.69,8.52-5.85-3.17-11.95-20.59-11.95-20.59l9-9.63,6.42,8.67Z"/></g><path class="cls-8_bug-fixing-1-83" d="m120.47,178.45s31.35,9.75,36.83,39.57c5.48,29.82,26.9,33.84,46.65,34.7l-2.04,12.59s-64.71,21.7-75.34-26.61c-11.27-51.22-6.09-60.25-6.09-60.25Z"/><g class="cls-4_bug-fixing-1-83"><path class="cls-13_bug-fixing-1-83" d="m120.47,178.45s31.35,9.75,36.83,39.57c5.48,29.82,26.9,33.84,46.65,34.7l-2.04,12.59s-64.71,21.7-75.34-26.61c-11.27-51.22-6.09-60.25-6.09-60.25Z"/></g><path class="cls-15_bug-fixing-1-83 targetColor" d="m113.33,175.09s42.34,8.2,49.45,56.61c0,0-3.61,13.85-24.73,20.09-21.11,6.24-24.73-76.7-24.73-76.7Z" style="fill: rgb(153, 38, 240);"/><g class="cls-3_bug-fixing-1-83"><path class="cls-1_bug-fixing-1-83" d="m113.33,175.09s42.34,8.2,49.45,56.61c0,0-3.61,13.85-24.73,20.09-21.11,6.24-24.73-76.7-24.73-76.7Z"/></g><path class="cls-15_bug-fixing-1-83 targetColor" d="m69.2,174.26s-52.79,13.06-40.48,57.26c12.31,44.2,28.53,77.26,28.53,77.26l66.02-4.52s65.85-153.69-54.07-130Z" style="fill: rgb(153, 38, 240);"/><polygon class="cls-8_bug-fixing-1-83" points="77.3 129.22 69.2 174.26 96.01 190.46 90.14 143.1 77.3 129.22"/><g class="cls-6_bug-fixing-1-83"><path class="cls-10_bug-fixing-1-83" d="m91.37,150.47s-4.64-1.04-8.07-5.04c0,0,.19,8.38,9.21,16.82l-1.14-11.79Z"/></g><path class="cls-8_bug-fixing-1-83" d="m97.72,125.92s2.82,13.68,1.57,23.14c-.51,3.84-4.09,6.58-7.92,6.02-4.76-.7-10.99-3.02-13.39-10.17l-5.57-11.63s-3.23-7.41,3.93-13.95c7.16-6.54,20.07-1.83,21.37,6.59Z"/><g class="cls-4_bug-fixing-1-83"><path class="cls-13_bug-fixing-1-83" d="m30.78,238.7s6.88,22.37,11.32,33.88c0,0,34.26,29.76,81.16,31.68,0,0,5.08-12.79,7.73-21.44,2.65-8.65-100.22-44.13-100.22-44.13Z"/></g><path class="cls-12_bug-fixing-1-83" d="m119.95,305.23s48.11-12.71,59.5,6.92c11.39,19.63-17.22,64.18-55.02,89.1l-9.37-12.84s29.71-22.65,29.71-51.35c0,0-41.69.17-43.96-15.1-2.27-15.27,19.14-16.73,19.14-16.73Z"/><g class="cls-4_bug-fixing-1-83"><path class="cls-13_bug-fixing-1-83" d="m119.95,305.23s48.11-12.71,59.5,6.92c11.39,19.63-17.22,64.18-55.02,89.1l-9.37-12.84s29.71-22.65,29.71-51.35c0,0-41.69.17-43.96-15.1-2.27-15.27,19.14-16.73,19.14-16.73Z"/></g><path class="cls-8_bug-fixing-1-83" d="m99.05,134.63l4.49,4.89c1.11,1.21.58,3.16-.98,3.65l-5.19,1.62,1.68-10.16Z"/><path class="cls-14_bug-fixing-1-83" d="m72.92,147.73l-4.85-18.36s-10.6-1.8-7.42-8.73c3.18-6.93,7.42-2.33,7.57-10.27.15-7.94,6.6-9.56,11.18-5.11,4.58,4.46,2.44-1.77,8.15-2.63,5.7-.86,7.22,1.69,7.36,6.03.14,4.34,8.36-.3,10.49,5.18,2.13,5.48,2.43,10.8-11.76,11.71-14.2.91-4.01,12.58-20.71,22.18Z"/><path class="cls-8_bug-fixing-1-83" d="m84.37,139.52s-.73-5.33-4.69-4.45c-3.96.88-2.96,8.59,2.58,8.67l2.11-4.22Z"/><rect class="cls-15_bug-fixing-1-83 targetColor" x="208.73" y="184.77" width="20.79" height="42.93" transform="translate(100.82 -70.45) rotate(23.59)" style="fill: rgb(153, 38, 240);"/><path class="cls-12_bug-fixing-1-83" d="m273.43,82.82c-31.35-13.69-67.85.63-81.54,31.98-13.69,31.35.63,67.85,31.98,81.54,31.35,13.69,67.85-.63,81.54-31.98,13.69-31.35-.63-67.85-31.98-81.54Zm-43.42,99.45c-23.58-10.29-34.35-37.75-24.05-61.33,10.29-23.58,37.75-34.35,61.33-24.05,23.58,10.29,34.35,37.75,24.05,61.33-10.29,23.58-37.75,34.35-61.33,24.05Z"/><rect class="cls-12_bug-fixing-1-83" x="183.54" y="211.54" width="34.62" height="73.12" rx="5.41" ry="5.41" transform="translate(116.04 -59.64) rotate(23.59)"/><path class="cls-8_bug-fixing-1-83" d="m193.69,243.68s17.61-2.52,15.6,11.07c-2.01,13.58-18.74,0-18.74,0,0,0-29.18,24.46-59.55,28.08-30.38,3.62-121.68-31.92-100.54-80.21,15.56-35.57,75.42,55.13,102.48,50.11,27.06-5.01,60.76-9.04,60.76-9.04Z"/><path class="cls-8_bug-fixing-1-83" d="m216.62,255.24s12.12-8.27,4.74-16.53c-7.38-8.27-10.15,8.13-4.74,16.53Z"/><path class="cls-15_bug-fixing-1-83 targetColor" d="m35.83,194.32s26.23-11.88,68.3,39.84l-30.42,39.64S-1.26,240.91,35.83,194.32Z" style="fill: rgb(153, 38, 240);"/><g class="cls-3_bug-fixing-1-83"><path class="cls-1_bug-fixing-1-83" d="m35.83,194.32s26.23-11.88,68.3,39.84l-30.42,39.64S-1.26,240.91,35.83,194.32Z"/></g><path class="cls-9_bug-fixing-1-83" d="m255.84,125.03c-.17-3.76-3.24-6.77-7.05-6.77s-6.77,2.91-7.03,6.58c-4.09,2.38-6.84,6.79-6.84,11.86v8.38c0,7.58,6.15,13.73,13.73,13.73h0c7.58,0,13.73-6.15,13.73-13.73v-8.38c0-4.94-2.62-9.26-6.54-11.68Z"/><path class="cls-9_bug-fixing-1-83" d="m241.52,136l-13.97-2.45c-.5-.09-.88-.49-.94-.99l-1.13-9.44,2.28-.27,1.03,8.59,13.13,2.31-.4,2.26Z"/><path class="cls-9_bug-fixing-1-83" d="m227.75,161.58l-2.28-.27,1.13-9.44c.06-.5.44-.91.94-.99l13.97-2.45.4,2.26-13.13,2.31-1.03,8.59Z"/><rect class="cls-9_bug-fixing-1-83" x="218.26" y="141.08" width="19.44" height="2.3"/><path class="cls-12_bug-fixing-1-83" d="m57.25,308.78s12.06,30.34,40.12,35.62c28.06,5.29,83.18,63.43,80.92,96.65h19.95s-.88-77.44-79.86-126.66l4.89-10.13-66.02,4.52Z"/><path class="cls-15_bug-fixing-1-83 targetColor" d="m194.8,441.82s3.53,7.6,10.68,7.56c7.15-.04,9.63,6.73,3.41,9.11-6.22,2.38-23.4-4.34-23.4-4.34l-1.45-13.1,10.76.77Z" style="fill: rgb(153, 38, 240);"/></g></svg>